<svg width="24" height="24" viewBox="0 0 24 24" fill="none" xmlns="http://www.w3.org/2000/svg">
<path d="M5.25 19.5C5.25 15.7725 8.2725 12.75 12 12.75C15.7275 12.75 18.75 15.7725 18.75 19.5M12 3.75C11.0054 3.75 10.0516 4.14509 9.34835 4.84835C8.64509 5.55161 8.25 6.50544 8.25 7.5C8.25 8.49456 8.64509 9.44839 9.34835 10.1517C10.0516 10.8549 11.0054 11.25 12 11.25C12.9946 11.25 13.9484 10.8549 14.6517 10.1517C15.3549 9.44839 15.75 8.49456 15.75 7.5C15.75 6.50544 15.3549 5.55161 14.6517 4.84835C13.9484 4.14509 12.9946 3.75 12 3.75Z" stroke="#9DA1A3" stroke-width="1.5" stroke-miterlimit="10"/>
</svg>
