<svg width="20" height="20" viewBox="0 0 20 20" fill="none" xmlns="http://www.w3.org/2000/svg">
<path d="M17.9996 3.06114C17.9589 3.35847 17.9245 3.65893 17.8744 3.95314C17.5677 5.77783 16.7667 7.3584 15.4962 8.69797C15.249 8.95775 14.9893 9.20813 14.7358 9.46165C14.7264 9.47104 14.7108 9.48043 14.717 9.4773C13.3183 8.07826 11.9257 6.68236 10.502 5.26141C10.9494 4.84827 11.4032 4.38506 11.8976 3.98131C13.1336 2.97037 14.5574 2.36005 16.1314 2.10341C16.3974 2.05959 16.6665 2.03455 16.9325 2.00012C17.1735 2.00012 17.4113 2.00012 17.6522 2.00012C17.8118 2.06898 17.9276 2.18478 17.9964 2.3444C17.9996 2.58227 17.9996 2.82327 17.9996 3.06114Z" fill="#82CC27"/>
<path d="M6.32129 9.50237C7.48223 8.3412 8.65569 7.16752 9.81663 6.00635C11.206 7.39599 12.6016 8.7919 13.991 10.1815C12.8301 11.3427 11.6597 12.5133 10.4957 13.6776C9.1063 12.2879 7.71066 10.892 6.32129 9.50237Z" fill="#82CC27"/>
<path d="M4.97596 9.89987C5.2263 9.89674 5.44534 9.98438 5.62371 10.1597C7.02873 11.5649 8.43688 12.9671 9.83877 14.3755C10.2018 14.7417 10.2018 15.2895 9.85442 15.6713C9.75428 15.784 9.64476 15.8872 9.53524 15.9937C9.29742 16.2253 9.03143 16.2253 8.79674 15.9905C7.81729 15.014 6.84098 14.0344 5.86153 13.0547C5.25133 12.4444 4.64113 11.8341 4.03093 11.2238C3.77434 10.9671 3.77121 10.7105 4.0278 10.4507C4.13107 10.3474 4.2312 10.2442 4.3376 10.144C4.52222 9.97186 4.72562 9.89674 4.97596 9.89987Z" fill="#82CC27"/>
<path d="M6.87268 3.30847C7.12928 3.31473 7.27948 3.39611 7.36397 3.57138C7.45159 3.75291 7.42655 3.92818 7.30451 4.08154C7.24506 4.15353 7.17622 4.21612 7.1105 4.28185C6.44085 4.95164 5.7712 5.62142 5.10154 6.2912C4.96386 6.42892 4.80427 6.49777 4.60712 6.43831C4.42563 6.38197 4.31924 6.25991 4.27543 6.07838C4.23788 5.91875 4.28481 5.77478 4.39747 5.66211C5.13596 4.92034 5.87446 4.17857 6.61922 3.44618C6.69432 3.37107 6.81636 3.33664 6.87268 3.30847Z" fill="#82CC27"/>
<path d="M16.1604 12.5852C16.4264 12.6009 16.5735 12.6916 16.6517 12.8763C16.7331 13.0672 16.6924 13.2456 16.5516 13.3958C16.3044 13.6493 16.0509 13.8966 15.8037 14.147C15.3249 14.6259 14.8493 15.1047 14.3674 15.5805C14.2328 15.7119 14.0764 15.7745 13.8855 15.7182C13.704 15.665 13.5945 15.5429 13.5507 15.3614C13.51 15.1955 13.5632 15.0484 13.679 14.9326C14.4143 14.1939 15.1466 13.4584 15.8882 12.726C15.9696 12.6478 16.101 12.6134 16.1604 12.5852Z" fill="#82CC27"/>
<path d="M6.46875 6.36318C6.50004 6.30685 6.53446 6.17852 6.61582 6.09402C7.3418 5.35538 8.07717 4.62613 8.80941 3.89374C9.00655 3.69656 9.29131 3.69969 9.47906 3.88435C9.67307 4.07527 9.67307 4.35696 9.46655 4.56666C8.95022 5.08934 8.43077 5.60576 7.91132 6.12532C7.70166 6.33502 7.49514 6.54784 7.28235 6.75441C7.13215 6.90152 6.95065 6.94533 6.75038 6.8577C6.56889 6.77945 6.48127 6.62922 6.46875 6.36318Z" fill="#82CC27"/>
<path d="M13.5756 13.5555C13.2001 13.5242 12.981 13.1393 13.1625 12.8232C13.1907 12.7731 13.2282 12.7293 13.2689 12.6886C13.9824 11.975 14.6958 11.2582 15.4093 10.5478C15.6972 10.2598 16.1165 10.3537 16.226 10.7262C16.2761 10.8952 16.2354 11.0517 16.1134 11.1737C15.3717 11.9186 14.6301 12.6635 13.8822 13.4022C13.8071 13.4773 13.6788 13.5055 13.5756 13.5555Z" fill="#82CC27"/>
<path d="M4.2873 16.2346C4.04948 16.2158 3.89928 16.1344 3.81792 15.956C3.73656 15.7714 3.75533 15.5899 3.89302 15.449C4.2873 15.0421 4.68784 14.6415 5.09464 14.2472C5.27614 14.0719 5.55151 14.0938 5.72987 14.2628C5.90511 14.4349 5.9364 14.7166 5.76117 14.8982C5.36375 15.3144 4.9507 15.7213 4.53764 16.1219C4.46567 16.1877 4.34363 16.2096 4.2873 16.2346Z" fill="#82CC27"/>
<path d="M2.49116 15.3676C2.29089 15.3394 2.14695 15.2581 2.06246 15.0891C1.97171 14.9107 1.9811 14.7229 2.11566 14.5789C2.46926 14.2064 2.83225 13.8403 3.20463 13.4866C3.38612 13.3144 3.66775 13.3395 3.83986 13.5148C4.01509 13.6932 4.02761 13.978 3.84925 14.1626C3.5019 14.5226 3.1483 14.8762 2.78844 15.2205C2.71021 15.2956 2.5913 15.3207 2.49116 15.3676Z" fill="#82CC27"/>
<path d="M5.17691 17.9999C4.92657 17.9842 4.7795 17.8966 4.70127 17.7182C4.62617 17.5429 4.63555 17.3614 4.77011 17.2237C5.12371 16.8575 5.48357 16.4944 5.85282 16.1408C6.02493 15.9749 6.30343 15.9905 6.47867 16.1533C6.65703 16.3192 6.69458 16.604 6.52561 16.7855C6.16887 17.1642 5.7965 17.5304 5.42099 17.8903C5.34589 17.9592 5.22698 17.978 5.17691 17.9999Z" fill="#82CC27"/>
<path d="M2.5162 17.9998C2.27838 17.9873 2.1313 17.8997 2.04994 17.7244C1.96858 17.5491 1.98736 17.3707 2.11566 17.2267C2.2596 17.064 2.41606 16.9075 2.57878 16.7635C2.75402 16.607 3.01687 16.6164 3.19211 16.7698C3.36422 16.92 3.41741 17.1923 3.27034 17.377C3.11075 17.5742 2.923 17.7494 2.73211 17.9184C2.66953 17.9716 2.56314 17.981 2.5162 17.9998Z" fill="#82CC27"/>
</svg>
