<svg width="20" height="20" viewBox="0 0 20 20" fill="none" xmlns="http://www.w3.org/2000/svg">
<path fill-rule="evenodd" clip-rule="evenodd" d="M5.625 16.25C5.625 15.5596 6.18464 15 6.875 15C7.56536 15 8.125 15.5596 8.125 16.25C8.125 16.9404 7.56536 17.5 6.875 17.5C6.18464 17.5 5.625 16.9404 5.625 16.25ZM14.375 16.25C14.375 15.5596 14.9346 15 15.625 15C16.3154 15 16.875 15.5596 16.875 16.25C16.875 16.9404 16.3154 17.5 15.625 17.5C14.9346 17.5 14.375 16.9404 14.375 16.25Z" fill="#F7F9FA"/>
<path fill-rule="evenodd" clip-rule="evenodd" d="M1.875 2.5C1.52982 2.5 1.25 2.77982 1.25 3.125C1.25 3.47018 1.52982 3.75 1.875 3.75H3.85064L5.63451 13.8586C5.68722 14.1573 5.94672 14.375 6.25 14.375H16.25C16.5952 14.375 16.875 14.0952 16.875 13.75C16.875 13.4048 16.5952 13.125 16.25 13.125H6.77436L6.55377 11.875H15.9933C16.2101 11.8752 16.4203 11.8001 16.588 11.6628C16.7558 11.5254 16.8707 11.334 16.9133 11.1214L18.0383 5.4964C18.0655 5.36035 18.0621 5.21996 18.0285 5.08535C17.9949 4.95071 17.9318 4.82522 17.8438 4.71793C17.7558 4.61065 17.6451 4.52423 17.5196 4.46492C17.3943 4.40568 17.2574 4.37497 17.1187 4.375H5.23025L4.99049 3.01638C4.93778 2.71772 4.67828 2.5 4.375 2.5H1.875ZM6.33319 10.625H15.7378L16.7378 5.625H5.45083L6.33319 10.625Z" fill="#F7F9FA"/>
</svg>
