<svg width="24" height="24" viewBox="0 0 24 24" fill="none" xmlns="http://www.w3.org/2000/svg">
<path d="M9.2513 4.66675H5.58464C5.07837 4.66675 4.66797 5.07715 4.66797 5.58341V9.25008C4.66797 9.75634 5.07837 10.1667 5.58464 10.1667H9.2513C9.75756 10.1667 10.168 9.75634 10.168 9.25008V5.58341C10.168 5.07715 9.75756 4.66675 9.2513 4.66675Z" stroke="#9DA1A3" stroke-width="1.25" stroke-linecap="round" stroke-linejoin="round"/>
<path d="M18.4154 4.66675H14.7487C14.2424 4.66675 13.832 5.07715 13.832 5.58341V9.25008C13.832 9.75634 14.2424 10.1667 14.7487 10.1667H18.4154C18.9216 10.1667 19.332 9.75634 19.332 9.25008V5.58341C19.332 5.07715 18.9216 4.66675 18.4154 4.66675Z" stroke="#9DA1A3" stroke-width="1.25" stroke-linecap="round" stroke-linejoin="round"/>
<path d="M9.2513 13.8333H5.58464C5.07837 13.8333 4.66797 14.2437 4.66797 14.7499V18.4166C4.66797 18.9228 5.07837 19.3333 5.58464 19.3333H9.2513C9.75756 19.3333 10.168 18.9228 10.168 18.4166V14.7499C10.168 14.2437 9.75756 13.8333 9.2513 13.8333Z" stroke="#9DA1A3" stroke-width="1.25" stroke-linecap="round" stroke-linejoin="round"/>
<path d="M18.4154 13.8333H14.7487C14.2424 13.8333 13.832 14.2437 13.832 14.7499V18.4166C13.832 18.9228 14.2424 19.3333 14.7487 19.3333H18.4154C18.9216 19.3333 19.332 18.9228 19.332 18.4166V14.7499C19.332 14.2437 18.9216 13.8333 18.4154 13.8333Z" stroke="#9DA1A3" stroke-width="1.25" stroke-linecap="round" stroke-linejoin="round"/>
</svg>
