<svg width="16" height="16" viewBox="0 0 16 16" fill="none" xmlns="http://www.w3.org/2000/svg">
<path d="M12.7999 13.3333H3.19987C2.61054 13.3333 2.1332 12.856 2.1332 12.2666V11.2H13.8665V12.2666C13.8665 12.856 13.3892 13.3333 12.7999 13.3333ZM7.99987 1.06665C7.71697 1.06665 7.44566 1.17903 7.24562 1.37907C7.04558 1.57911 6.9332 1.85042 6.9332 2.13332C6.9332 2.41621 7.04558 2.68753 7.24562 2.88756C7.44566 3.0876 7.71697 3.19998 7.99987 3.19998C8.28277 3.19998 8.55408 3.0876 8.75412 2.88756C8.95415 2.68753 9.06654 2.41621 9.06654 2.13332C9.06654 1.85042 8.95415 1.57911 8.75412 1.37907C8.55408 1.17903 8.28277 1.06665 7.99987 1.06665ZM14.3999 3.73332C14.117 3.73332 13.8457 3.8457 13.6456 4.04574C13.4456 4.24577 13.3332 4.51709 13.3332 4.79998C13.3332 5.08288 13.4456 5.35419 13.6456 5.55423C13.8457 5.75427 14.117 5.86665 14.3999 5.86665C14.6828 5.86665 14.9541 5.75427 15.1541 5.55423C15.3542 5.35419 15.4665 5.08288 15.4665 4.79998C15.4665 4.51709 15.3542 4.24577 15.1541 4.04574C14.9541 3.8457 14.6828 3.73332 14.3999 3.73332ZM1.59987 3.73332C1.31697 3.73332 1.04566 3.8457 0.845623 4.04574C0.645584 4.24577 0.533203 4.51709 0.533203 4.79998C0.533203 5.08288 0.645584 5.35419 0.845623 5.55423C1.04566 5.75427 1.31697 5.86665 1.59987 5.86665C1.88277 5.86665 2.15408 5.75427 2.35412 5.55423C2.55416 5.35419 2.66654 5.08288 2.66654 4.79998C2.66654 4.51709 2.55416 4.24577 2.35412 4.04574C2.15408 3.8457 1.88277 3.73332 1.59987 3.73332Z" fill="#E0B531"/>
<path d="M12.2667 10.1333H3.7334L8.00007 2.1333L12.2667 10.1333Z" fill="#E0B531"/>
<path d="M13.8663 10.1334H5.33301L14.3997 4.80005L13.8663 10.1334Z" fill="#E0B531"/>
<path d="M2.13294 10.1334H10.6663L1.59961 4.80005L2.13294 10.1334Z" fill="#E0B531"/>
</svg>
