<svg width="24" height="24" viewBox="0 0 24 24" fill="none" xmlns="http://www.w3.org/2000/svg">
<path d="M18.9365 21.0579C18.9365 21.2568 18.8574 21.4475 18.7168 21.5882C18.5762 21.7288 18.3854 21.8079 18.1865 21.8079H5.83691C5.42283 21.8078 5.08691 21.472 5.08691 21.0579V18.6302C5.08703 18.2664 5.34875 17.9552 5.70703 17.8919L6.5 17.7513L5.19727 15.6234C5.16275 15.5669 5.13577 15.5062 5.11719 15.4427L3.47559 9.82843C3.06661 9.81287 2.68225 9.6955 2.35059 9.49738C1.66086 9.08525 1.19545 8.32953 1.19531 7.46417C1.19531 6.15474 2.259 5.09503 3.56738 5.09503C4.87567 5.09527 5.93848 6.15499 5.93848 7.46417C5.93841 7.84874 5.84528 8.2126 5.68164 8.53448L7.58496 10.1839L8.05762 6.36261C7.71687 6.19961 7.42061 5.95933 7.19434 5.66339C6.88991 5.26515 6.70898 4.76598 6.70898 4.22687C6.70909 2.91765 7.77193 1.8589 9.08008 1.8587C10.3884 1.8587 11.452 2.91752 11.4521 4.22687C11.4521 4.5598 11.3824 4.87889 11.2568 5.16827C11.1108 5.50468 10.8879 5.79809 10.6123 6.03156L11.999 9.16827L13.3857 6.03156C13.1103 5.79809 12.8872 5.50462 12.7412 5.16827C12.6156 4.87889 12.5469 4.5598 12.5469 4.22687C12.547 2.91763 13.6098 1.85887 14.918 1.8587C16.2263 1.8587 17.2899 2.91752 17.29 4.22687C17.29 4.76608 17.1082 5.26512 16.8037 5.66339C16.5771 5.95967 16.2807 6.19963 15.9395 6.36261L16.4131 10.1829L18.3164 8.53351C18.1531 8.21184 18.0606 7.84822 18.0605 7.46417C18.0605 6.15479 19.1233 5.09512 20.4316 5.09503C21.74 5.09503 22.8037 6.15474 22.8037 7.46417C22.8036 8.32953 22.3382 9.08525 21.6484 9.49738C21.3163 9.69584 20.9312 9.81313 20.5215 9.82843L18.8818 15.4427C18.8632 15.5063 18.8354 15.5668 18.8008 15.6234L17.499 17.7484L18.3154 17.8919C18.6742 17.9547 18.9364 18.266 18.9365 18.6302V21.0579Z" stroke="#9DA1A3" stroke-width="1.5" stroke-linejoin="round"/>
</svg>
