<svg width="24" height="24" viewBox="0 0 24 24" fill="none" xmlns="http://www.w3.org/2000/svg">
<path d="M19.1084 20.9997C19.1084 21.1985 19.0292 21.3893 18.8887 21.53C18.748 21.6706 18.5573 21.7497 18.3584 21.7497H5.66602C5.2518 21.7497 4.91602 21.4139 4.91602 20.9997V18.4997C4.91617 18.1361 5.17711 17.8248 5.53516 17.7614L8.09473 17.3083C7.81967 17.0983 7.55174 16.8555 7.30469 16.5759C6.5316 15.7007 5.97369 14.4879 5.97363 12.8913C5.97363 10.4686 7.25243 8.43234 8.46191 7.10028C8.8064 6.72089 9.15542 6.39254 9.47852 6.11688C9.46846 6.09783 9.4569 6.07955 9.44727 6.06024C9.25484 5.67462 9.14648 5.23968 9.14648 4.78192C9.14657 3.19963 10.4295 1.91693 12.0117 1.91669C13.5942 1.91669 14.8778 3.19948 14.8779 4.78192C14.8779 5.41514 14.6711 6.00246 14.3223 6.47723C14.3061 6.49921 14.289 6.52062 14.2705 6.54071C14.1672 6.65326 14.0674 6.76911 13.9717 6.88739C13.1233 7.93619 12.57 9.20799 12.293 10.5739C12.4892 9.97529 12.7522 9.38885 13.0576 8.86102C13.3742 8.314 13.7505 7.80423 14.1719 7.3952C14.234 7.33487 14.2977 7.27664 14.3623 7.2204C14.4197 7.17048 14.4786 7.12229 14.5381 7.07587L14.6611 6.99677C14.9609 6.8451 15.3342 6.91079 15.5635 7.17255C15.8132 7.45795 16.0551 7.76511 16.2812 8.09149C16.469 8.36247 16.6466 8.64769 16.8105 8.94501C17.442 10.0901 17.874 11.4325 17.874 12.8913C17.874 14.4708 17.3283 15.6751 16.5674 16.5485C16.3221 16.83 16.0551 17.0741 15.7812 17.2858L18.4883 17.7614C18.8467 17.8245 19.1082 18.1357 19.1084 18.4997V20.9997Z" stroke="#9DA1A3" stroke-width="1.5" stroke-linejoin="round"/>
</svg>
