<svg width="24" height="24" viewBox="0 0 24 24" fill="none" xmlns="http://www.w3.org/2000/svg">
<path d="M16.4014 12.4125C16.4014 12.8267 16.0656 13.1625 15.6514 13.1625H14.9707C15.0847 13.4262 15.2422 13.6994 15.4404 13.9789C15.6345 14.2525 15.8616 14.5239 16.1123 14.7875C16.9393 15.6569 17.9451 16.3659 18.6025 16.7416L18.7061 16.8002C18.9397 16.9337 19.0839 17.1825 19.084 17.4515V20.6664C19.084 21.0806 18.7482 21.4164 18.334 21.4164H5.33398C4.91977 21.4164 4.58398 21.0806 4.58398 20.6664V17.4515C4.58405 17.1825 4.72829 16.9337 4.96191 16.8002L5.06543 16.7416C5.72289 16.3659 6.72867 15.6569 7.55566 14.7875C7.80634 14.5239 8.03348 14.2525 8.22754 13.9789C8.42577 13.6994 8.58328 13.4262 8.69727 13.1625H8.0166C7.60239 13.1625 7.2666 12.8267 7.2666 12.4125V10.2426C7.2666 9.99886 7.3849 9.76981 7.58398 9.62927L8.45312 9.01501C8.24752 8.73227 8.07605 8.42215 7.94824 8.09021C7.77404 7.63765 7.67971 7.14655 7.67969 6.63513C7.67969 4.39762 9.493 2.58356 11.7305 2.58337C13.9681 2.58337 15.7822 4.3975 15.7822 6.63513C15.7822 7.19943 15.6669 7.73878 15.457 8.22888C15.3528 8.47236 15.2238 8.70244 15.0762 8.91833L16.084 9.62927C16.2831 9.76981 16.4014 9.99886 16.4014 10.2426V12.4125Z" stroke="#9DA1A3" stroke-width="1.5" stroke-linejoin="round"/>
</svg>
