<svg width="32" height="32" viewBox="0 0 32 32" fill="none" xmlns="http://www.w3.org/2000/svg">
<path d="M8.04989 16.33C7.93294 16.2123 7.79388 16.119 7.64071 16.0553C7.48754 15.9915 7.32329 15.9587 7.1574 15.9587C6.99151 15.9587 6.82726 15.9915 6.67409 16.0553C6.52092 16.119 6.38186 16.2123 6.26491 16.33L5.25991 17.33C5.14223 17.4474 5.04887 17.5869 4.98516 17.7405C4.92146 17.8941 4.88867 18.0587 4.88867 18.225C4.88867 18.3913 4.92146 18.5559 4.98516 18.7095C5.04887 18.863 5.14223 19.0025 5.25991 19.12L10.4499 24.31C10.6877 24.5466 11.0094 24.6794 11.3449 24.6794C11.6803 24.6794 12.0021 24.5466 12.2399 24.31L13.2399 23.305C13.3575 23.188 13.4509 23.049 13.5146 22.8958C13.5783 22.7426 13.6111 22.5784 13.6111 22.4125C13.6111 22.2466 13.5783 22.0823 13.5146 21.9292C13.4509 21.776 13.3575 21.6369 13.2399 21.52L8.04989 16.33Z" fill="#32ACFC"/>
<path d="M5.31968 20.595L2.46468 23.45C2.16201 23.7552 1.99219 24.1676 1.99219 24.5975C1.99219 25.0273 2.16201 25.4398 2.46468 25.745L3.74968 27.025C3.90002 27.1754 4.07851 27.2947 4.27498 27.3761C4.47144 27.4575 4.68202 27.4994 4.89468 27.4994C5.10735 27.4994 5.31793 27.4575 5.51439 27.3761C5.71086 27.2947 5.88935 27.1754 6.03968 27.025L8.89468 24.17C8.43056 23.6993 5.31968 20.595 5.31968 20.595V20.595Z" fill="#32ACFC"/>
<path d="M26.8193 17.33L25.8143 16.33C25.6968 16.2123 25.5573 16.1189 25.4038 16.0552C25.2502 15.9915 25.0856 15.9587 24.9193 15.9587C24.753 15.9587 24.5884 15.9915 24.4348 16.0552C24.2812 16.1189 24.1417 16.2123 24.0243 16.33L18.8343 21.52C18.5989 21.7574 18.4668 22.0782 18.4668 22.4125C18.4668 22.7468 18.5989 23.0676 18.8343 23.305L19.8393 24.31C20.0775 24.5457 20.3991 24.6779 20.7343 24.6779C21.0694 24.6779 21.3911 24.5457 21.6293 24.31L26.8193 19.12C27.0548 18.8816 27.1868 18.56 27.1868 18.225C27.1868 17.8899 27.0548 17.5684 26.8193 17.33Z" fill="#32ACFC"/>
<path d="M7.84446 11.755L18.6995 20.24L19.4095 19.53C19.9342 19.0076 22.2747 16.663 22.7495 16.19L14.2645 5.33998C14.0334 5.04609 13.7377 4.80934 13.4005 4.64807C13.0632 4.48679 12.6933 4.40533 12.3195 4.40998L8.40946 4.45498C8.02687 4.45985 7.6614 4.61434 7.39132 4.88536C7.12123 5.15638 6.96801 5.52238 6.96446 5.90498L6.91946 9.81498C6.91172 10.1881 6.99133 10.5578 7.15194 10.8947C7.31255 11.2315 7.5497 11.5261 7.84446 11.755V11.755Z" fill="#32ACFC"/>
<path d="M10.2992 14.9449L9.32422 16.1849C9.78766 16.648 13.3792 20.2399 13.3792 20.2399L15.2242 18.7949C14.7138 18.394 10.2992 14.9449 10.2992 14.9449V14.9449Z" fill="#32ACFC"/>
<path d="M21.9499 13.54L24.2349 11.755C24.5294 11.5248 24.7663 11.2292 24.9269 10.8916C25.0874 10.554 25.1672 10.1837 25.1599 9.80999L25.1149 5.89999C25.108 5.51718 24.9522 5.15212 24.6806 4.88233C24.4089 4.61253 24.0428 4.45924 23.6599 4.45499L19.7549 4.40999C19.3819 4.40282 19.0124 4.48269 18.6756 4.64326C18.3389 4.80382 18.0442 5.04066 17.8149 5.33499L16.6699 6.79499C16.9587 7.14572 21.9499 13.54 21.9499 13.54V13.54Z" fill="#32ACFC"/>
<path d="M29.5345 23.53L26.6795 20.67C26.2113 21.1387 23.1045 24.25 23.1045 24.25L25.9595 27.105C26.1097 27.2556 26.2882 27.3751 26.4847 27.4566C26.6812 27.5381 26.8918 27.58 27.1045 27.58C27.3172 27.58 27.5278 27.5381 27.7243 27.4566C27.9208 27.3751 28.0992 27.2556 28.2495 27.105L29.5345 25.82C29.8365 25.5155 30.0059 25.1039 30.0059 24.675C30.0059 24.2461 29.8365 23.8346 29.5345 23.53V23.53Z" fill="#32ACFC"/>
</svg>
