<svg width="24" height="24" viewBox="0 0 24 24" fill="none" xmlns="http://www.w3.org/2000/svg">
<path d="M12.0507 21C11.4679 21 11.0073 20.5367 10.5301 20.2021C6.36311 17.28 2.25612 13.5893 2.35067 8.2C2.25067 5.4 4.65067 3 7.45067 3C9.75067 3 11.2507 4.4 12.0507 5.4C12.7507 4.4 14.2507 3 16.5507 3C19.3507 3 21.7507 5.4 21.7507 8.3C21.8343 12.985 15.5488 18.5799 13.4925 20.2831C13.0693 20.6337 12.6003 21 12.0507 21ZM7.45067 4.5C5.45067 4.5 3.75067 6.2 3.75067 8.3C3.75067 13.2 7.85067 16.7 11.9507 19.5C16.5507 16.1906 20.2566 11.6803 20.2566 8.3C20.2566 6.2 18.5507 4.5 16.5507 4.5C14.0507 4.5 12.6507 7.1 12.6507 7.1C12.5507 7.3 12.2507 7.5 11.9507 7.5C11.4062 7.5 11.1338 6.84525 10.8083 6.40875C10.2339 5.63851 9.105 4.5 7.45067 4.5Z" fill="#F7F9FA"/>
</svg>
