<svg width="56" height="56" viewBox="0 0 56 56" fill="none" xmlns="http://www.w3.org/2000/svg">
<path d="M14.5474 48.1251C13.8758 48.1238 13.2162 47.9478 12.6333 47.6143C11.3208 46.8705 10.5049 45.4268 10.5049 43.8594V12.1407C10.5049 10.569 11.3208 9.1296 12.6333 8.38585C13.2301 8.04289 13.908 7.86652 14.5962 7.87518C15.2845 7.88384 15.9577 8.07721 16.5457 8.43507L43.6543 24.6619C44.2192 25.0162 44.685 25.5081 45.0078 26.0916C45.3306 26.6751 45.5 27.331 45.5 27.9979C45.5 28.6647 45.3306 29.3207 45.0078 29.9041C44.685 30.4876 44.2192 30.9796 43.6543 31.3338L16.5413 47.5651C15.9396 47.9288 15.2505 48.1224 14.5474 48.1251Z" fill="#FCFCFC"/>
</svg>
