<svg width="16" height="16" viewBox="0 0 16 16" fill="none" xmlns="http://www.w3.org/2000/svg">
<path d="M7.76395 1.78952C7.86348 1.59773 8.13783 1.59773 8.23735 1.78952L9.95728 5.10402C9.99595 5.17855 10.0675 5.23051 10.1503 5.24426L13.8341 5.85577C14.0472 5.89116 14.132 6.15208 13.9804 6.30599L11.3596 8.96598C11.3006 9.02579 11.2733 9.10987 11.2858 9.1929L11.8426 12.8853C11.8748 13.099 11.6529 13.2603 11.4596 13.1636L8.11995 11.493C8.04485 11.4555 7.95645 11.4555 7.88135 11.493L4.54169 13.1636C4.34844 13.2603 4.12649 13.099 4.1587 12.8853L4.71547 9.1929C4.72799 9.10987 4.70067 9.02579 4.64174 8.96598L2.02095 6.30599C1.8693 6.15208 1.95408 5.89116 2.16723 5.85577L5.851 5.24426C5.93383 5.23051 6.00535 5.17855 6.04403 5.10402L7.76395 1.78952Z" fill="#E0B531"/>
</svg>
